<svg width="60" height="60" viewBox="0 0 60 60" fill="none" xmlns="http://www.w3.org/2000/svg">
<g clip-path="url(#clip0_1075_39468)">
<path d="M28.7525 10.0625V0H31.2525V10.0625L30.0025 10L28.7525 10.0625ZM11.055 23.6325L1.345 21.03L0.695 23.445L10.3975 26.045C10.565 25.2175 10.79 24.4175 11.055 23.6325ZM26.0425 10.395L23.445 0.7L21.0275 1.3475L23.63 11.055C24.4175 10.79 25.2175 10.5625 26.0425 10.395ZM10.0025 30L10.065 28.7525H0V31.2525H10.065L10.0025 30ZM16.785 15.0175L9.67 7.905L7.9025 9.6725L15.0175 16.7875C15.57 16.16 16.16 15.57 16.785 15.0175ZM13.3425 18.94L4.6425 13.9175L3.3925 16.0825L12.1025 21.1125C12.4775 20.365 12.8825 19.635 13.3425 18.94ZM47.5825 20.4575L56.245 15.4575L55.7275 14.5575L47.0425 19.57L47.5825 20.4575ZM49.46 25.44L59.1425 22.845L58.82 21.6375L49.1475 24.23L49.46 25.44ZM40.2675 12.86L45.28 4.18L44.7375 3.8675L39.7325 12.535L40.2675 12.86ZM35.38 10.7525L37.9725 1.075L37.5725 0.9675L34.9775 10.65L35.38 10.7525ZM44.4275 16.1725L51.515 9.0875L50.925 8.4975L43.84 15.58L44.4275 16.1725ZM21.11 12.105L16.0825 3.395L13.92 4.645L18.9425 13.3425C19.6325 12.8825 20.3625 12.4775 21.11 12.105ZM10.3975 33.9625L0.6975 36.5625L1.3475 38.9775L11.0575 36.375C10.7925 35.59 10.565 34.79 10.3975 33.9625ZM38.985 47.8525L44.01 56.555L45.9925 55.41L40.9725 46.715C40.335 47.1325 39.6675 47.505 38.985 47.8525ZM46.8225 40.795L55.515 45.8125L56.4525 44.19L47.7625 39.1725C47.4725 39.7325 47.1575 40.27 46.8225 40.795ZM43.3725 44.845L50.4775 51.95L51.9525 50.4775L44.845 43.3725C44.3775 43.89 43.8875 44.38 43.3725 44.845ZM49.0925 35.98L58.765 38.5725L59.195 36.9625L49.51 34.3675C49.3875 34.9125 49.255 35.4525 49.0925 35.98ZM49.965 29.275L50.0025 30L49.965 30.7325H60V29.275H49.965ZM33.96 49.605L36.5575 59.3025L38.975 58.655L36.3725 48.945C35.585 49.21 34.785 49.4375 33.96 49.605ZM30.0025 50L28.7525 49.9375V60H31.2525V49.9375L30.0025 50ZM15.0225 43.22L7.905 50.335L9.6725 52.1025L16.79 44.985C16.165 44.435 15.5725 43.845 15.0225 43.22ZM12.11 38.895L3.3975 43.925L4.6475 46.09L13.3475 41.0675C12.885 40.3725 12.48 39.6425 12.11 38.895ZM18.945 46.66L13.92 55.3625L16.0825 56.6125L21.115 47.8975C20.3675 47.525 19.6375 47.12 18.945 46.66ZM23.635 48.9475L21.03 58.6625L23.4475 59.31L26.0475 49.6075C25.2225 49.44 24.4225 49.2125 23.635 48.9475Z" fill="#016BE7"/>
</g>
<defs>
<clipPath id="clip0_1075_39468">
<rect width="60" height="60" fill="white"/>
</clipPath>
</defs>
</svg>
