<svg width="155" height="32" viewBox="0 0 155 32" fill="none" xmlns="http://www.w3.org/2000/svg">
<g id="top_medistaff_icon_scroll">
<path id="Fill-1" fill-rule="evenodd" clip-rule="evenodd" d="M27.974 22.6267H25.7334L25.5465 22.436V15.0053H25.36L22.3726 22.436L22.1856 22.6267H20.132L19.9456 22.436L16.9576 15.0053H16.7712V22.436L16.5842 22.6267H14.3437L14.1572 22.436V9.48035L14.3437 9.28966H17.1446L17.3311 9.48035L21.0653 18.8163H21.2523L24.9866 9.48035L25.1736 9.28966H27.974L28.1604 9.48035V22.436L27.974 22.6267Z" fill="#1F4BD5"/>
<path id="Fill-2" fill-rule="evenodd" clip-rule="evenodd" d="M39.054 22.6267H30.2782L30.0918 22.436V9.48035L30.2782 9.28966H39.054L39.2405 9.48035V11.3856L39.054 11.5762H32.8922L32.7058 11.7664V14.4338L32.8922 14.6245H38.6806L38.8676 14.8152V16.7204L38.6806 16.9111H32.8922L32.7058 17.1012V20.15L32.8922 20.3401H39.054L39.2405 20.5308V22.436L39.054 22.6267Z" fill="#1F4BD5"/>
<path id="Fill-3" fill-rule="evenodd" clip-rule="evenodd" d="M41.3905 22.6265H45.4988C50.1663 22.6265 51.847 20.1498 51.847 15.958C51.847 11.7667 50.1663 9.28944 45.4988 9.28944H41.3905L41.2041 9.48012V22.4364L41.3905 22.6265ZM44.0045 11.576H45.6852C48.2992 11.576 49.233 12.9097 49.233 15.958C49.233 19.0067 48.2992 20.3405 45.6852 20.3405H44.0045L43.8181 20.1498V11.7667L44.0045 11.576Z" fill="#1F4BD5"/>
<path id="Fill-5" fill-rule="evenodd" clip-rule="evenodd" d="M56.5877 22.6267H54.3471L54.1602 22.436V9.48035L54.3471 9.28966H56.5877L56.7741 9.48035V22.436L56.5877 22.6267Z" fill="#1F4BD5"/>
<path id="Fill-7" fill-rule="evenodd" clip-rule="evenodd" d="M98.7175 22.6714C95.033 22.6714 93.375 20.8024 93.375 18.3725L93.5592 18.1852H95.7699L95.9541 18.3725C95.9541 19.6806 96.691 20.4283 98.9017 20.4283C100.56 20.4283 101.481 19.8679 101.481 18.7461C101.481 17.4375 100.744 17.0639 98.1648 16.6898C95.5857 16.3162 93.5592 15.3812 93.5592 12.7645C93.5592 10.8955 95.033 9.21333 98.5333 9.21333C102.034 9.21333 103.507 10.8955 103.507 13.1386L103.323 13.3254H101.112L100.928 13.1386C100.928 12.0173 100.376 11.4564 98.349 11.4564C96.691 11.4564 96.1384 12.0173 96.1384 12.7645C96.1384 13.8863 96.8753 14.2604 99.4544 14.634C102.034 15.0076 104.06 16.1294 104.06 18.7461C104.06 20.8024 102.586 22.6714 98.7175 22.6714Z" fill="#1F4BD5"/>
<path id="Fill-9" fill-rule="evenodd" clip-rule="evenodd" d="M114.744 11.6433H111.059L110.875 11.8301V22.2979L110.691 22.4846H108.48L108.296 22.2979V11.8301L108.112 11.6433H104.428L104.243 11.4565V9.58695L104.428 9.40017H114.744L114.928 9.58695V11.4565L114.744 11.6433Z" fill="#1F4BD5"/>
<path id="Fill-11" fill-rule="evenodd" clip-rule="evenodd" d="M124.14 22.4843H125.798L125.982 22.2975V20.4285L121.745 9.58712L121.56 9.40034H119.166L118.981 9.58712L114.744 20.4285V22.2975L114.928 22.4843H116.586L116.771 22.2975L117.692 19.8676L118.06 19.6808H122.666L123.034 19.8676L123.955 22.2975L124.14 22.4843ZM120.271 12.7647H120.455L122.113 17.2509L121.929 17.4377H118.797L118.613 17.2509L120.271 12.7647Z" fill="#1F4BD5"/>
<path id="Fill-13" fill-rule="evenodd" clip-rule="evenodd" d="M135.519 11.6433H129.808L129.624 11.8301V14.6341L129.808 14.8209H135.151L135.335 15.0076V16.8766L135.151 17.064H129.808L129.624 17.2507V22.2979L129.44 22.4846H127.229L127.045 22.2979V9.58695L127.229 9.40017H135.519L135.703 9.58695V11.4565L135.519 11.6433Z" fill="#1F4BD5"/>
<path id="Fill-15" fill-rule="evenodd" clip-rule="evenodd" d="M145.61 11.6433H139.899L139.715 11.8301V14.6341L139.899 14.8209H145.242L145.426 15.0076V16.8766L145.242 17.064H139.899L139.715 17.2507V22.2979L139.531 22.4846H137.32L137.136 22.2979V9.58695L137.32 9.40017H145.61L145.794 9.58695V11.4565L145.61 11.6433Z" fill="#1F4BD5"/>
<path id="Fill-17" fill-rule="evenodd" clip-rule="evenodd" d="M90.9014 0L62.0375 29.0906H3.18104L2.88672 28.7996V3.19989L3.17495 2.90884H62.9033L72.2843 12.3635H76.0567L76.0573 12.0519L64.0988 0H0.288783L0 0.293839V31.7106L0.288783 32H63.233L76.6343 18.4934V14.3791L90.9014 0Z" fill="#1F4BD5"/>
<path id="Fill-22" fill-rule="evenodd" clip-rule="evenodd" d="M154.714 0H153.845H90.9009L76.6338 14.3791V18.4934L92.0964 2.90884H150.953H151.825L152.114 3.19989V28.7996L151.825 29.0906H150.959H92.9628L82.7159 18.7633H78.9429V19.075L79.5 19.6365L91.7672 32H153.845H154.711L155 31.7089V0.302202L154.714 0Z" fill="#1F4BD5"/>
</g>
</svg>
